<?xml version="1.0" encoding="utf-8"?>
<!-- Generator: Adobe Illustrator 22.0.0, SVG Export Plug-In . SVG Version: 6.00 Build 0)  -->
<svg version="1.1" id="Layer_1" xmlns="http://www.w3.org/2000/svg" xmlns:xlink="http://www.w3.org/1999/xlink" x="0px" y="0px"
	 viewBox="0 0 28.1 23" style="enable-background:new 0 0 28.1 23;" xml:space="preserve">
<style type="text/css">
	.st0{fill:#FFFFFF;}
</style>
<g>
	<path class="st0" d="M19.5,5c0,0.7-0.6,1.2-1.2,1.2c-0.6,0-1.2-0.5-1.2-1.2s0.6-1.2,1.2-1.2C18.9,3.8,19.5,4.3,19.5,5z M15.7,4.3
		H4.3C3.9,4.3,3.5,4.6,3.5,5c0,0.4,0.3,0.8,0.8,0.8h11.4c0.3,1.1,1.4,2,2.7,2c1.2,0,2.3-0.8,2.6-2h2.8c0.4,0,0.8-0.3,0.8-0.8
		c0-0.4-0.3-0.8-0.8-0.8H21c-0.3-1.1-1.4-2-2.6-2C17.1,2.3,16,3.1,15.7,4.3z"/>
	<path class="st0" d="M10.3,11.2c0,0.7-0.6,1.2-1.2,1.2c-0.6,0-1.2-0.5-1.2-1.2c0-0.7,0.6-1.2,1.2-1.2C9.7,10,10.3,10.5,10.3,11.2z
		 M6.4,10.4H4.3c-0.4,0-0.8,0.3-0.8,0.8S3.9,12,4.3,12h2.1c0.3,1.1,1.4,2,2.7,2c1.2,0,2.3-0.8,2.6-2h12.1c0.4,0,0.8-0.3,0.8-0.8
		s-0.3-0.8-0.8-0.8H11.7c-0.3-1.1-1.4-2-2.6-2C7.8,8.4,6.8,9.3,6.4,10.4z"/>
	<path class="st0" d="M15.8,18c0,0.7-0.6,1.2-1.2,1.2c-0.6,0-1.2-0.5-1.2-1.2s0.6-1.2,1.2-1.2C15.3,16.8,15.8,17.3,15.8,18z
		 M12,17.2H4.3c-0.4,0-0.8,0.3-0.8,0.8c0,0.4,0.3,0.8,0.8,0.8H12c0.3,1.1,1.4,2,2.7,2c1.2,0,2.3-0.8,2.6-2h6.5
		c0.4,0,0.8-0.3,0.8-0.8c0-0.4-0.3-0.8-0.8-0.8h-6.5c-0.3-1.1-1.4-2-2.6-2C13.4,15.2,12.3,16.1,12,17.2z"/>
</g>
</svg>
