<?xml version="1.0" encoding="utf-8"?>
<!-- Generator: Adobe Illustrator 22.0.0, SVG Export Plug-In . SVG Version: 6.00 Build 0)  -->
<svg version="1.1" id="Layer_1" xmlns="http://www.w3.org/2000/svg" xmlns:xlink="http://www.w3.org/1999/xlink" x="0px" y="0px"
	 viewBox="0 0 28.1 25.3" style="enable-background:new 0 0 28.1 25.3;" xml:space="preserve">
<style type="text/css">
	.st0{fill:#DD9937;}
</style>
<path class="st0" d="M10.4,9.9c0.2,0,0.5-0.1,0.6-0.3c0.1-0.2,0.1-0.5,0-0.7L7.5,4.1C7.3,3.8,6.9,3.7,6.6,3.9
	C6.3,4.1,6.2,4.5,6.4,4.8l3.4,4.9C10,9.8,10.2,9.9,10.4,9.9L10.4,9.9z M13.3,10.8C13.6,9.9,13.5,8.8,13,8L9.2,2.8
	C9,2.5,8.6,2.5,8.3,2.7C8.1,2.9,8,3.3,8.2,3.6l3.7,5.2c0.3,0.4,0.4,1,0.2,1.5c-0.2,0.4-0.1,0.8,0.1,1.2l6.9,9
	c0.1,0.1,0.1,0.3,0.1,0.5c0,0.2-0.1,0.3-0.2,0.4c-0.1,0.1-0.3,0.1-0.5,0.1c-0.2,0-0.3-0.1-0.4-0.3l-6.3-9.4l0,0
	c-0.2-0.4-0.7-0.5-1.1-0.5c-0.5,0.1-1.1-0.2-1.4-0.6L5.7,5.4C5.5,5.1,5.1,5,4.8,5.2C4.5,5.4,4.5,5.8,4.7,6.1l3.7,5.2
	c0.6,0.8,1.5,1.2,2.5,1.2l6.2,9.4c0.3,0.4,0.7,0.7,1.2,0.8c0.1,0,0.2,0,0.3,0c0.7,0,1.4-0.4,1.7-1c0.3-0.6,0.2-1.4-0.2-2L13.3,10.8z
	 M22.3,3.1c-0.8-0.6-2-0.7-3.2-0.1c-1.2,0.6-2.3,1.4-3,2.5C15,7,14.5,8.7,14.8,10.2c0,0.3,0,0.6-0.1,0.8c-0.1,0.3,0.1,0.7,0.4,0.8
	c0.3,0.1,0.7-0.1,0.8-0.4c0.2-0.5,0.2-1,0.1-1.5c-0.2-1.1,0.3-2.5,1.1-3.8c0.6-0.9,1.5-1.6,2.5-2.1c0.5-0.2,1.3-0.5,2,0
	c0.6,0.5,0.7,1.4,0.6,1.9c-0.1,1.1-0.5,2.1-1.2,3c-0.9,1.3-2.1,2.1-3.2,2.3c-0.5,0.1-0.9,0.3-1.3,0.6c-0.1,0.1-0.2,0.2-0.3,0.3
	c-0.2,0.2-0.2,0.6,0,0.9c0.2,0.2,0.6,0.3,0.9,0c0.1-0.1,0.1-0.1,0.2-0.2c0.2-0.2,0.5-0.3,0.8-0.3c1.4-0.2,2.9-1.3,4-2.8
	c0.8-1.1,1.3-2.3,1.4-3.7C23.6,4.7,23.2,3.6,22.3,3.1L22.3,3.1z M13.6,18.4l-2.2,3.4c-0.3,0.4-0.8,0.8-1.3,0.9c-0.1,0-0.3,0-0.4,0
	c-0.4,0-0.7-0.1-1.1-0.3c-0.4-0.3-0.7-0.8-0.8-1.3c-0.1-0.5,0.1-1.1,0.4-1.5l3.1-4h0c0.2-0.3,0.6-0.3,0.9-0.1
	c0.3,0.2,0.3,0.6,0.1,0.9l-3.1,4h0C9.1,20.5,9,20.7,9,20.9c0,0.2,0.1,0.3,0.3,0.4c0.1,0.1,0.3,0.1,0.5,0.1c0.2,0,0.4-0.2,0.5-0.3
	l2.2-3.4c0.1-0.2,0.2-0.3,0.4-0.3c0.2,0,0.3,0,0.5,0.1c0.1,0.1,0.2,0.2,0.3,0.4C13.7,18.1,13.7,18.2,13.6,18.4L13.6,18.4z"/>
</svg>
