<?xml version="1.0" encoding="utf-8"?>
<!-- Generator: Adobe Illustrator 22.0.0, SVG Export Plug-In . SVG Version: 6.00 Build 0)  -->
<svg version="1.1" id="Layer_1" xmlns="http://www.w3.org/2000/svg" xmlns:xlink="http://www.w3.org/1999/xlink" x="0px" y="0px"
	 viewBox="0 0 54 29.9" style="enable-background:new 0 0 54 29.9;" xml:space="preserve">
<style type="text/css">
	.st0{fill:#FFFFFF;}
</style>
<path class="st0" d="M7.1,19.9c-0.6,0-1,0.5-1,1s0.5,1,1,1h6.3c0.6,0,1-0.5,1-1s-0.5-1-1-1H7.1z M5,13.6c-0.6,0-1,0.5-1,1
	c0,0.6,0.5,1,1,1h8.3c0.6,0,1-0.5,1-1c0-0.6-0.5-1-1-1H5z M23.1,7.9c-0.4,0-0.8,0.3-0.9,0.7c-0.1,0.4,0,0.8,0.3,1.1l5.2,5.2
	l-5.2,4.7c-0.2,0.2-0.3,0.4-0.3,0.7s0.1,0.5,0.3,0.8c0.2,0.2,0.4,0.3,0.7,0.3c0.3,0,0.5-0.1,0.8-0.3l5.3-4.8l1.6,1.6
	c1.3,1.3,3.4,1.3,4.6,0l1.6-1.6l5.3,4.8c0.2,0.2,0.5,0.3,0.8,0.3c0.3,0,0.5-0.1,0.7-0.3c0.2-0.2,0.3-0.5,0.3-0.8
	c0-0.3-0.1-0.5-0.3-0.7l-5.2-4.8l5.3-5.2c0.2-0.2,0.3-0.5,0.3-0.7c0-0.3-0.1-0.6-0.3-0.8c-0.2-0.2-0.5-0.3-0.7-0.3
	c-0.3,0-0.5,0.1-0.7,0.3L34,16.4c-0.4,0.4-1.3,0.4-1.7,0L24,8.2C23.8,7.9,23.5,7.8,23.1,7.9L23.1,7.9z M2.9,7.4c-0.6,0-1,0.5-1,1
	s0.5,1,1,1h10.4c0.6,0,1-0.5,1-1s-0.5-1-1-1H2.9z M19.6,5.8h27.1c0.6,0,1,0.4,1,1v15.7c0,0.6-0.4,1-1,1H19.6c-0.6,0-1-0.4-1-1V6.8
	C18.6,6.2,19,5.8,19.6,5.8z M19.6,3.7c-1.7,0-3.1,1.4-3.1,3.1v15.7c0,1.7,1.4,3.1,3.1,3.1h27.1c1.7,0,3.1-1.4,3.1-3.1V6.8
	c0-1.7-1.4-3.1-3.1-3.1H19.6z"/>
</svg>
